M48
; DRILL file {KiCad 9.0.2} date 2026-04-20T12:09:07-0600
; FORMAT={-:-/ absolute / metric / decimal}
; #@! TF.CreationDate,2026-04-20T12:09:07-06:00
; #@! TF.GenerationSoftware,Kicad,Pcbnew,9.0.2
; #@! TF.FileFunction,Plated,1,2,PTH
FMAT,2
METRIC
; #@! TA.AperFunction,Plated,PTH,ViaDrill
T1C0.300
; #@! TA.AperFunction,Plated,PTH,ComponentDrill
T2C0.300
; #@! TA.AperFunction,Plated,PTH,ComponentDrill
T3C0.500
; #@! TA.AperFunction,Plated,PTH,ComponentDrill
T4C0.800
; #@! TA.AperFunction,Plated,PTH,ComponentDrill
T5C0.889
; #@! TA.AperFunction,Plated,PTH,ComponentDrill
T6C1.600
; #@! TA.AperFunction,Plated,PTH,ComponentDrill
T7C3.000
; #@! TA.AperFunction,Plated,PTH,ComponentDrill
T8C3.300
%
G90
G05
T1
X197.25Y-154.75
X201.0Y-155.75
X225.5Y-123.25
X228.0Y-140.75
X228.5Y-165.5
X229.25Y-140.5
X233.75Y-123.25
X234.375Y-135.375
X234.75Y-123.75
X235.75Y-116.0
X236.0Y-136.75
X236.5Y-138.0
X236.787Y-139.287
X237.25Y-158.0
X237.75Y-123.75
X238.125Y-157.75
X240.75Y-120.75
X240.75Y-126.5
X242.0Y-133.0
X243.5Y-118.5
X244.25Y-133.0
X250.0Y-123.5
X252.5Y-124.5
T2
X187.0Y-181.5
X197.0Y-146.012
X210.75Y-127.544
X210.897Y-146.012
X211.75Y-186.206
X213.5Y-139.25
X213.606Y-112.43
X214.25Y-186.206
X216.206Y-142.75
X236.623Y-165.75
X236.75Y-178.25
X238.25Y-184.75
X239.417Y-165.75
X245.25Y-122.75
T3
X208.35Y-158.056
T4
X186.4Y-152.306
X190.75Y-103.75
X190.75Y-105.75
X199.1Y-152.306
X201.5Y-121.25
X201.5Y-123.25
X216.0Y-156.456
X216.3Y-146.75
X219.5Y-156.456
X229.0Y-146.75
T5
X186.71Y-191.75
X187.25Y-114.0
X189.25Y-188.75
X189.25Y-191.75
X191.75Y-188.75
X191.79Y-191.75
X194.33Y-191.75
X198.75Y-191.75
X199.5Y-139.0
X201.29Y-191.75
X203.83Y-191.75
X206.37Y-191.75
X207.25Y-145.0
X208.0Y-114.25
X209.96Y-191.75
X212.5Y-191.75
X215.04Y-191.75
X217.58Y-191.75
X218.698Y-112.504
X219.5Y-139.25
X221.238Y-112.504
X221.75Y-191.75
X222.75Y-139.25
X223.25Y-182.0
X223.778Y-112.504
X224.25Y-130.0
X224.29Y-191.75
X226.318Y-112.504
X226.83Y-191.75
X228.858Y-112.504
X229.0Y-171.25
X230.0Y-191.75
X231.398Y-112.504
X232.54Y-191.75
X237.25Y-191.75
X238.0Y-105.0
X239.79Y-191.75
X242.25Y-114.25
X242.33Y-191.75
X244.87Y-191.75
X260.5Y-105.05
X260.5Y-107.59
X260.5Y-110.13
X260.5Y-112.67
X260.5Y-115.21
X260.5Y-117.75
X260.5Y-120.29
X260.5Y-124.55
X260.5Y-127.09
X260.5Y-129.63
X260.5Y-132.17
X260.5Y-134.71
X260.5Y-137.25
X260.5Y-139.79
X260.5Y-144.05
X260.5Y-146.59
X260.5Y-149.13
X260.5Y-151.67
X260.5Y-154.21
X260.5Y-156.75
X260.5Y-159.29
X260.5Y-163.63
X260.5Y-166.17
X260.5Y-168.71
X260.5Y-171.25
X260.5Y-173.79
X260.5Y-176.33
X260.5Y-178.87
T6
X172.5Y-100.66
X172.5Y-114.16
X172.5Y-118.66
X172.5Y-132.16
X172.5Y-136.31
X172.5Y-149.81
X172.5Y-154.16
X172.5Y-167.66
X172.5Y-172.06
X172.5Y-185.56
T7
X178.5Y-103.81
X178.5Y-111.01
X178.5Y-121.81
X178.5Y-129.01
X178.5Y-139.46
X178.5Y-146.66
X178.5Y-157.31
X178.5Y-164.51
X178.5Y-175.21
X178.5Y-182.41
T8
X174.0Y-93.25
X174.0Y-191.75
X259.0Y-191.75
X259.75Y-93.25
M30
