%TF.GenerationSoftware,KiCad,Pcbnew,9.0.2*%
%TF.CreationDate,2026-04-17T14:33:46-06:00*%
%TF.ProjectId,ThermalCamera,54686572-6d61-46c4-9361-6d6572612e6b,rev?*%
%TF.SameCoordinates,Original*%
%TF.FileFunction,Paste,Top*%
%TF.FilePolarity,Positive*%
%FSLAX46Y46*%
G04 Gerber Fmt 4.6, Leading zero omitted, Abs format (unit mm)*
G04 Created by KiCad (PCBNEW 9.0.2) date 2026-04-17 14:33:46*
%MOMM*%
%LPD*%
G01*
G04 APERTURE LIST*
G04 Aperture macros list*
%AMRoundRect*
0 Rectangle with rounded corners*
0 $1 Rounding radius*
0 $2 $3 $4 $5 $6 $7 $8 $9 X,Y pos of 4 corners*
0 Add a 4 corners polygon primitive as box body*
4,1,4,$2,$3,$4,$5,$6,$7,$8,$9,$2,$3,0*
0 Add four circle primitives for the rounded corners*
1,1,$1+$1,$2,$3*
1,1,$1+$1,$4,$5*
1,1,$1+$1,$6,$7*
1,1,$1+$1,$8,$9*
0 Add four rect primitives between the rounded corners*
20,1,$1+$1,$2,$3,$4,$5,0*
20,1,$1+$1,$4,$5,$6,$7,0*
20,1,$1+$1,$6,$7,$8,$9,0*
20,1,$1+$1,$8,$9,$2,$3,0*%
G04 Aperture macros list end*
%ADD10RoundRect,0.381000X-0.381000X-0.381000X0.381000X-0.381000X0.381000X0.381000X-0.381000X0.381000X0*%
%ADD11RoundRect,0.381000X-0.381000X0.381000X-0.381000X-0.381000X0.381000X-0.381000X0.381000X0.381000X0*%
%ADD12R,2.700000X6.200000*%
%ADD13RoundRect,0.381000X0.381000X0.381000X-0.381000X0.381000X-0.381000X-0.381000X0.381000X-0.381000X0*%
%ADD14R,1.500000X0.380000*%
%ADD15RoundRect,0.381000X0.381000X-0.381000X0.381000X0.381000X-0.381000X0.381000X-0.381000X-0.381000X0*%
%ADD16R,0.762000X2.286000*%
%ADD17R,0.950000X4.300000*%
%ADD18RoundRect,0.487500X1.137500X1.662500X-1.137500X1.662500X-1.137500X-1.662500X1.137500X-1.662500X0*%
G04 APERTURE END LIST*
D10*
%TO.C,D4*%
X210750000Y-168056000D03*
X213544000Y-168056000D03*
%TD*%
D11*
%TO.C,C4*%
X211000000Y-103750000D03*
X211000000Y-106544000D03*
%TD*%
D12*
%TO.C,L1*%
X203750000Y-158056000D03*
%TD*%
D10*
%TO.C,L2*%
X241373000Y-165750000D03*
X244167000Y-165750000D03*
%TD*%
D13*
%TO.C,R4*%
X198294000Y-168000000D03*
X195500000Y-168000000D03*
%TD*%
D11*
%TO.C,C10*%
X210897000Y-148806000D03*
%TD*%
D14*
%TO.C,U3*%
X219700000Y-118100000D03*
X219700000Y-118750000D03*
X219700000Y-119400000D03*
X219700000Y-120050000D03*
X219700000Y-120700000D03*
X219700000Y-121350000D03*
X219700000Y-122000000D03*
X219700000Y-122650000D03*
X219700000Y-123300000D03*
X219700000Y-123950000D03*
X219700000Y-124600000D03*
X219700000Y-125250000D03*
X219700000Y-125900000D03*
X219700000Y-126550000D03*
X227500000Y-126550000D03*
X227500000Y-125900000D03*
X227500000Y-125250000D03*
X227500000Y-124600000D03*
X227500000Y-123950000D03*
X227500000Y-123300000D03*
X227500000Y-122650000D03*
X227500000Y-122000000D03*
X227500000Y-121350000D03*
X227500000Y-120700000D03*
X227500000Y-120050000D03*
X227500000Y-119400000D03*
X227500000Y-118750000D03*
X227500000Y-118100000D03*
%TD*%
D11*
%TO.C,R3*%
X213606000Y-109636000D03*
%TD*%
%TO.C,R10*%
X236750000Y-175456000D03*
%TD*%
D15*
%TO.C,D1*%
X197000000Y-148806000D03*
%TD*%
D10*
%TO.C,C3*%
X199206000Y-148806000D03*
X202000000Y-148806000D03*
%TD*%
D15*
%TO.C,C8*%
X208000000Y-168056000D03*
X208000000Y-165262000D03*
%TD*%
%TO.C,R7*%
X213500000Y-165556000D03*
X213500000Y-162762000D03*
%TD*%
D13*
%TO.C,C11*%
X239520000Y-170000000D03*
X236726000Y-170000000D03*
%TD*%
D11*
%TO.C,C7*%
X210750000Y-124750000D03*
%TD*%
D15*
%TO.C,R12*%
X214250000Y-189000000D03*
%TD*%
D16*
%TO.C,U2*%
X195555000Y-161773500D03*
X196825000Y-161773500D03*
X198095000Y-161773500D03*
X199365000Y-161773500D03*
X199365000Y-156566500D03*
X198095000Y-156566500D03*
X196825000Y-156566500D03*
X195555000Y-156566500D03*
%TD*%
D11*
%TO.C,D3*%
X214500000Y-121956000D03*
X214500000Y-124750000D03*
%TD*%
D10*
%TO.C,D5*%
X204500000Y-148806000D03*
X207294000Y-148806000D03*
%TD*%
D15*
%TO.C,D2*%
X213606000Y-106544000D03*
X213606000Y-103750000D03*
%TD*%
D11*
%TO.C,C2*%
X195000000Y-103750000D03*
X195000000Y-106544000D03*
%TD*%
%TO.C,C5*%
X191250000Y-164750000D03*
X191250000Y-167544000D03*
%TD*%
D13*
%TO.C,R1*%
X192794000Y-160647000D03*
X190000000Y-160647000D03*
%TD*%
D10*
%TO.C,R6*%
X208000000Y-121250000D03*
X210794000Y-121250000D03*
%TD*%
D17*
%TO.C,U1*%
X203800000Y-103750000D03*
D18*
X201500000Y-111700000D03*
D17*
X201500000Y-103750000D03*
X199200000Y-103750000D03*
%TD*%
D10*
%TO.C,R5*%
X202250000Y-168056000D03*
X205044000Y-168056000D03*
%TD*%
D15*
%TO.C,R11*%
X211750000Y-189000000D03*
%TD*%
M02*
