%TF.GenerationSoftware,KiCad,Pcbnew,9.0.2*%
%TF.CreationDate,2026-04-20T12:09:08-06:00*%
%TF.ProjectId,ThermalCamera,54686572-6d61-46c4-9361-6d6572612e6b,rev?*%
%TF.SameCoordinates,Original*%
%TF.FileFunction,Legend,Bot*%
%TF.FilePolarity,Positive*%
%FSLAX46Y46*%
G04 Gerber Fmt 4.6, Leading zero omitted, Abs format (unit mm)*
G04 Created by KiCad (PCBNEW 9.0.2) date 2026-04-20 12:09:08*
%MOMM*%
%LPD*%
G01*
G04 APERTURE LIST*
%ADD10C,0.300000*%
%ADD11C,0.125000*%
%ADD12C,0.150000*%
%ADD13C,0.120000*%
%ADD14C,0.000000*%
G04 APERTURE END LIST*
D10*
X228650000Y-152250000D02*
G75*
G02*
X228350000Y-152250000I-150000J0D01*
G01*
X228350000Y-152250000D02*
G75*
G02*
X228650000Y-152250000I150000J0D01*
G01*
D11*
X240142858Y-95305992D02*
X240190477Y-95353612D01*
X240190477Y-95353612D02*
X240333334Y-95401231D01*
X240333334Y-95401231D02*
X240428572Y-95401231D01*
X240428572Y-95401231D02*
X240571429Y-95353612D01*
X240571429Y-95353612D02*
X240666667Y-95258373D01*
X240666667Y-95258373D02*
X240714286Y-95163135D01*
X240714286Y-95163135D02*
X240761905Y-94972659D01*
X240761905Y-94972659D02*
X240761905Y-94829802D01*
X240761905Y-94829802D02*
X240714286Y-94639326D01*
X240714286Y-94639326D02*
X240666667Y-94544088D01*
X240666667Y-94544088D02*
X240571429Y-94448850D01*
X240571429Y-94448850D02*
X240428572Y-94401231D01*
X240428572Y-94401231D02*
X240333334Y-94401231D01*
X240333334Y-94401231D02*
X240190477Y-94448850D01*
X240190477Y-94448850D02*
X240142858Y-94496469D01*
X239285715Y-95401231D02*
X239285715Y-94877421D01*
X239285715Y-94877421D02*
X239333334Y-94782183D01*
X239333334Y-94782183D02*
X239428572Y-94734564D01*
X239428572Y-94734564D02*
X239619048Y-94734564D01*
X239619048Y-94734564D02*
X239714286Y-94782183D01*
X239285715Y-95353612D02*
X239380953Y-95401231D01*
X239380953Y-95401231D02*
X239619048Y-95401231D01*
X239619048Y-95401231D02*
X239714286Y-95353612D01*
X239714286Y-95353612D02*
X239761905Y-95258373D01*
X239761905Y-95258373D02*
X239761905Y-95163135D01*
X239761905Y-95163135D02*
X239714286Y-95067897D01*
X239714286Y-95067897D02*
X239619048Y-95020278D01*
X239619048Y-95020278D02*
X239380953Y-95020278D01*
X239380953Y-95020278D02*
X239285715Y-94972659D01*
X238809524Y-95401231D02*
X238809524Y-94734564D01*
X238809524Y-94829802D02*
X238761905Y-94782183D01*
X238761905Y-94782183D02*
X238666667Y-94734564D01*
X238666667Y-94734564D02*
X238523810Y-94734564D01*
X238523810Y-94734564D02*
X238428572Y-94782183D01*
X238428572Y-94782183D02*
X238380953Y-94877421D01*
X238380953Y-94877421D02*
X238380953Y-95401231D01*
X238380953Y-94877421D02*
X238333334Y-94782183D01*
X238333334Y-94782183D02*
X238238096Y-94734564D01*
X238238096Y-94734564D02*
X238095239Y-94734564D01*
X238095239Y-94734564D02*
X238000000Y-94782183D01*
X238000000Y-94782183D02*
X237952381Y-94877421D01*
X237952381Y-94877421D02*
X237952381Y-95401231D01*
X237095239Y-95353612D02*
X237190477Y-95401231D01*
X237190477Y-95401231D02*
X237380953Y-95401231D01*
X237380953Y-95401231D02*
X237476191Y-95353612D01*
X237476191Y-95353612D02*
X237523810Y-95258373D01*
X237523810Y-95258373D02*
X237523810Y-94877421D01*
X237523810Y-94877421D02*
X237476191Y-94782183D01*
X237476191Y-94782183D02*
X237380953Y-94734564D01*
X237380953Y-94734564D02*
X237190477Y-94734564D01*
X237190477Y-94734564D02*
X237095239Y-94782183D01*
X237095239Y-94782183D02*
X237047620Y-94877421D01*
X237047620Y-94877421D02*
X237047620Y-94972659D01*
X237047620Y-94972659D02*
X237523810Y-95067897D01*
X236619048Y-95401231D02*
X236619048Y-94734564D01*
X236619048Y-94925040D02*
X236571429Y-94829802D01*
X236571429Y-94829802D02*
X236523810Y-94782183D01*
X236523810Y-94782183D02*
X236428572Y-94734564D01*
X236428572Y-94734564D02*
X236333334Y-94734564D01*
X235571429Y-95401231D02*
X235571429Y-94877421D01*
X235571429Y-94877421D02*
X235619048Y-94782183D01*
X235619048Y-94782183D02*
X235714286Y-94734564D01*
X235714286Y-94734564D02*
X235904762Y-94734564D01*
X235904762Y-94734564D02*
X236000000Y-94782183D01*
X235571429Y-95353612D02*
X235666667Y-95401231D01*
X235666667Y-95401231D02*
X235904762Y-95401231D01*
X235904762Y-95401231D02*
X236000000Y-95353612D01*
X236000000Y-95353612D02*
X236047619Y-95258373D01*
X236047619Y-95258373D02*
X236047619Y-95163135D01*
X236047619Y-95163135D02*
X236000000Y-95067897D01*
X236000000Y-95067897D02*
X235904762Y-95020278D01*
X235904762Y-95020278D02*
X235666667Y-95020278D01*
X235666667Y-95020278D02*
X235571429Y-94972659D01*
X233761905Y-95305992D02*
X233809524Y-95353612D01*
X233809524Y-95353612D02*
X233952381Y-95401231D01*
X233952381Y-95401231D02*
X234047619Y-95401231D01*
X234047619Y-95401231D02*
X234190476Y-95353612D01*
X234190476Y-95353612D02*
X234285714Y-95258373D01*
X234285714Y-95258373D02*
X234333333Y-95163135D01*
X234333333Y-95163135D02*
X234380952Y-94972659D01*
X234380952Y-94972659D02*
X234380952Y-94829802D01*
X234380952Y-94829802D02*
X234333333Y-94639326D01*
X234333333Y-94639326D02*
X234285714Y-94544088D01*
X234285714Y-94544088D02*
X234190476Y-94448850D01*
X234190476Y-94448850D02*
X234047619Y-94401231D01*
X234047619Y-94401231D02*
X233952381Y-94401231D01*
X233952381Y-94401231D02*
X233809524Y-94448850D01*
X233809524Y-94448850D02*
X233761905Y-94496469D01*
X233190476Y-95401231D02*
X233285714Y-95353612D01*
X233285714Y-95353612D02*
X233333333Y-95305992D01*
X233333333Y-95305992D02*
X233380952Y-95210754D01*
X233380952Y-95210754D02*
X233380952Y-94925040D01*
X233380952Y-94925040D02*
X233333333Y-94829802D01*
X233333333Y-94829802D02*
X233285714Y-94782183D01*
X233285714Y-94782183D02*
X233190476Y-94734564D01*
X233190476Y-94734564D02*
X233047619Y-94734564D01*
X233047619Y-94734564D02*
X232952381Y-94782183D01*
X232952381Y-94782183D02*
X232904762Y-94829802D01*
X232904762Y-94829802D02*
X232857143Y-94925040D01*
X232857143Y-94925040D02*
X232857143Y-95210754D01*
X232857143Y-95210754D02*
X232904762Y-95305992D01*
X232904762Y-95305992D02*
X232952381Y-95353612D01*
X232952381Y-95353612D02*
X233047619Y-95401231D01*
X233047619Y-95401231D02*
X233190476Y-95401231D01*
X232428571Y-94734564D02*
X232428571Y-95401231D01*
X232428571Y-94829802D02*
X232380952Y-94782183D01*
X232380952Y-94782183D02*
X232285714Y-94734564D01*
X232285714Y-94734564D02*
X232142857Y-94734564D01*
X232142857Y-94734564D02*
X232047619Y-94782183D01*
X232047619Y-94782183D02*
X232000000Y-94877421D01*
X232000000Y-94877421D02*
X232000000Y-95401231D01*
X231666666Y-94734564D02*
X231285714Y-94734564D01*
X231523809Y-94401231D02*
X231523809Y-95258373D01*
X231523809Y-95258373D02*
X231476190Y-95353612D01*
X231476190Y-95353612D02*
X231380952Y-95401231D01*
X231380952Y-95401231D02*
X231285714Y-95401231D01*
X230952380Y-95401231D02*
X230952380Y-94734564D01*
X230952380Y-94925040D02*
X230904761Y-94829802D01*
X230904761Y-94829802D02*
X230857142Y-94782183D01*
X230857142Y-94782183D02*
X230761904Y-94734564D01*
X230761904Y-94734564D02*
X230666666Y-94734564D01*
X230190475Y-95401231D02*
X230285713Y-95353612D01*
X230285713Y-95353612D02*
X230333332Y-95305992D01*
X230333332Y-95305992D02*
X230380951Y-95210754D01*
X230380951Y-95210754D02*
X230380951Y-94925040D01*
X230380951Y-94925040D02*
X230333332Y-94829802D01*
X230333332Y-94829802D02*
X230285713Y-94782183D01*
X230285713Y-94782183D02*
X230190475Y-94734564D01*
X230190475Y-94734564D02*
X230047618Y-94734564D01*
X230047618Y-94734564D02*
X229952380Y-94782183D01*
X229952380Y-94782183D02*
X229904761Y-94829802D01*
X229904761Y-94829802D02*
X229857142Y-94925040D01*
X229857142Y-94925040D02*
X229857142Y-95210754D01*
X229857142Y-95210754D02*
X229904761Y-95305992D01*
X229904761Y-95305992D02*
X229952380Y-95353612D01*
X229952380Y-95353612D02*
X230047618Y-95401231D01*
X230047618Y-95401231D02*
X230190475Y-95401231D01*
X229285713Y-95401231D02*
X229380951Y-95353612D01*
X229380951Y-95353612D02*
X229428570Y-95258373D01*
X229428570Y-95258373D02*
X229428570Y-94401231D01*
X227809522Y-94877421D02*
X227666665Y-94925040D01*
X227666665Y-94925040D02*
X227619046Y-94972659D01*
X227619046Y-94972659D02*
X227571427Y-95067897D01*
X227571427Y-95067897D02*
X227571427Y-95210754D01*
X227571427Y-95210754D02*
X227619046Y-95305992D01*
X227619046Y-95305992D02*
X227666665Y-95353612D01*
X227666665Y-95353612D02*
X227761903Y-95401231D01*
X227761903Y-95401231D02*
X228142855Y-95401231D01*
X228142855Y-95401231D02*
X228142855Y-94401231D01*
X228142855Y-94401231D02*
X227809522Y-94401231D01*
X227809522Y-94401231D02*
X227714284Y-94448850D01*
X227714284Y-94448850D02*
X227666665Y-94496469D01*
X227666665Y-94496469D02*
X227619046Y-94591707D01*
X227619046Y-94591707D02*
X227619046Y-94686945D01*
X227619046Y-94686945D02*
X227666665Y-94782183D01*
X227666665Y-94782183D02*
X227714284Y-94829802D01*
X227714284Y-94829802D02*
X227809522Y-94877421D01*
X227809522Y-94877421D02*
X228142855Y-94877421D01*
X226999998Y-95401231D02*
X227095236Y-95353612D01*
X227095236Y-95353612D02*
X227142855Y-95305992D01*
X227142855Y-95305992D02*
X227190474Y-95210754D01*
X227190474Y-95210754D02*
X227190474Y-94925040D01*
X227190474Y-94925040D02*
X227142855Y-94829802D01*
X227142855Y-94829802D02*
X227095236Y-94782183D01*
X227095236Y-94782183D02*
X226999998Y-94734564D01*
X226999998Y-94734564D02*
X226857141Y-94734564D01*
X226857141Y-94734564D02*
X226761903Y-94782183D01*
X226761903Y-94782183D02*
X226714284Y-94829802D01*
X226714284Y-94829802D02*
X226666665Y-94925040D01*
X226666665Y-94925040D02*
X226666665Y-95210754D01*
X226666665Y-95210754D02*
X226714284Y-95305992D01*
X226714284Y-95305992D02*
X226761903Y-95353612D01*
X226761903Y-95353612D02*
X226857141Y-95401231D01*
X226857141Y-95401231D02*
X226999998Y-95401231D01*
X225809522Y-95401231D02*
X225809522Y-94877421D01*
X225809522Y-94877421D02*
X225857141Y-94782183D01*
X225857141Y-94782183D02*
X225952379Y-94734564D01*
X225952379Y-94734564D02*
X226142855Y-94734564D01*
X226142855Y-94734564D02*
X226238093Y-94782183D01*
X225809522Y-95353612D02*
X225904760Y-95401231D01*
X225904760Y-95401231D02*
X226142855Y-95401231D01*
X226142855Y-95401231D02*
X226238093Y-95353612D01*
X226238093Y-95353612D02*
X226285712Y-95258373D01*
X226285712Y-95258373D02*
X226285712Y-95163135D01*
X226285712Y-95163135D02*
X226238093Y-95067897D01*
X226238093Y-95067897D02*
X226142855Y-95020278D01*
X226142855Y-95020278D02*
X225904760Y-95020278D01*
X225904760Y-95020278D02*
X225809522Y-94972659D01*
X225333331Y-95401231D02*
X225333331Y-94734564D01*
X225333331Y-94925040D02*
X225285712Y-94829802D01*
X225285712Y-94829802D02*
X225238093Y-94782183D01*
X225238093Y-94782183D02*
X225142855Y-94734564D01*
X225142855Y-94734564D02*
X225047617Y-94734564D01*
X224285712Y-95401231D02*
X224285712Y-94401231D01*
X224285712Y-95353612D02*
X224380950Y-95401231D01*
X224380950Y-95401231D02*
X224571426Y-95401231D01*
X224571426Y-95401231D02*
X224666664Y-95353612D01*
X224666664Y-95353612D02*
X224714283Y-95305992D01*
X224714283Y-95305992D02*
X224761902Y-95210754D01*
X224761902Y-95210754D02*
X224761902Y-94925040D01*
X224761902Y-94925040D02*
X224714283Y-94829802D01*
X224714283Y-94829802D02*
X224666664Y-94782183D01*
X224666664Y-94782183D02*
X224571426Y-94734564D01*
X224571426Y-94734564D02*
X224380950Y-94734564D01*
X224380950Y-94734564D02*
X224285712Y-94782183D01*
X239547619Y-97011175D02*
X239880952Y-96534984D01*
X240119047Y-97011175D02*
X240119047Y-96011175D01*
X240119047Y-96011175D02*
X239738095Y-96011175D01*
X239738095Y-96011175D02*
X239642857Y-96058794D01*
X239642857Y-96058794D02*
X239595238Y-96106413D01*
X239595238Y-96106413D02*
X239547619Y-96201651D01*
X239547619Y-96201651D02*
X239547619Y-96344508D01*
X239547619Y-96344508D02*
X239595238Y-96439746D01*
X239595238Y-96439746D02*
X239642857Y-96487365D01*
X239642857Y-96487365D02*
X239738095Y-96534984D01*
X239738095Y-96534984D02*
X240119047Y-96534984D01*
X238738095Y-96963556D02*
X238833333Y-97011175D01*
X238833333Y-97011175D02*
X239023809Y-97011175D01*
X239023809Y-97011175D02*
X239119047Y-96963556D01*
X239119047Y-96963556D02*
X239166666Y-96868317D01*
X239166666Y-96868317D02*
X239166666Y-96487365D01*
X239166666Y-96487365D02*
X239119047Y-96392127D01*
X239119047Y-96392127D02*
X239023809Y-96344508D01*
X239023809Y-96344508D02*
X238833333Y-96344508D01*
X238833333Y-96344508D02*
X238738095Y-96392127D01*
X238738095Y-96392127D02*
X238690476Y-96487365D01*
X238690476Y-96487365D02*
X238690476Y-96582603D01*
X238690476Y-96582603D02*
X239166666Y-96677841D01*
X238357142Y-96344508D02*
X238119047Y-97011175D01*
X238119047Y-97011175D02*
X237880952Y-96344508D01*
X236785713Y-96725460D02*
X236309523Y-96725460D01*
X236880951Y-97011175D02*
X236547618Y-96011175D01*
X236547618Y-96011175D02*
X236214285Y-97011175D01*
X235119046Y-96630222D02*
X234357142Y-96630222D01*
X233166665Y-96725460D02*
X232690475Y-96725460D01*
X233261903Y-97011175D02*
X232928570Y-96011175D01*
X232928570Y-96011175D02*
X232595237Y-97011175D01*
X232261903Y-97011175D02*
X232261903Y-96011175D01*
X232261903Y-96011175D02*
X231880951Y-96011175D01*
X231880951Y-96011175D02*
X231785713Y-96058794D01*
X231785713Y-96058794D02*
X231738094Y-96106413D01*
X231738094Y-96106413D02*
X231690475Y-96201651D01*
X231690475Y-96201651D02*
X231690475Y-96344508D01*
X231690475Y-96344508D02*
X231738094Y-96439746D01*
X231738094Y-96439746D02*
X231785713Y-96487365D01*
X231785713Y-96487365D02*
X231880951Y-96534984D01*
X231880951Y-96534984D02*
X232261903Y-96534984D01*
X230690475Y-97011175D02*
X231023808Y-96534984D01*
X231261903Y-97011175D02*
X231261903Y-96011175D01*
X231261903Y-96011175D02*
X230880951Y-96011175D01*
X230880951Y-96011175D02*
X230785713Y-96058794D01*
X230785713Y-96058794D02*
X230738094Y-96106413D01*
X230738094Y-96106413D02*
X230690475Y-96201651D01*
X230690475Y-96201651D02*
X230690475Y-96344508D01*
X230690475Y-96344508D02*
X230738094Y-96439746D01*
X230738094Y-96439746D02*
X230785713Y-96487365D01*
X230785713Y-96487365D02*
X230880951Y-96534984D01*
X230880951Y-96534984D02*
X231261903Y-96534984D01*
X230261903Y-97011175D02*
X230261903Y-96011175D01*
X229309523Y-97011175D02*
X229785713Y-97011175D01*
X229785713Y-97011175D02*
X229785713Y-96011175D01*
X228261903Y-96106413D02*
X228214284Y-96058794D01*
X228214284Y-96058794D02*
X228119046Y-96011175D01*
X228119046Y-96011175D02*
X227880951Y-96011175D01*
X227880951Y-96011175D02*
X227785713Y-96058794D01*
X227785713Y-96058794D02*
X227738094Y-96106413D01*
X227738094Y-96106413D02*
X227690475Y-96201651D01*
X227690475Y-96201651D02*
X227690475Y-96296889D01*
X227690475Y-96296889D02*
X227738094Y-96439746D01*
X227738094Y-96439746D02*
X228309522Y-97011175D01*
X228309522Y-97011175D02*
X227690475Y-97011175D01*
X227071427Y-96011175D02*
X226976189Y-96011175D01*
X226976189Y-96011175D02*
X226880951Y-96058794D01*
X226880951Y-96058794D02*
X226833332Y-96106413D01*
X226833332Y-96106413D02*
X226785713Y-96201651D01*
X226785713Y-96201651D02*
X226738094Y-96392127D01*
X226738094Y-96392127D02*
X226738094Y-96630222D01*
X226738094Y-96630222D02*
X226785713Y-96820698D01*
X226785713Y-96820698D02*
X226833332Y-96915936D01*
X226833332Y-96915936D02*
X226880951Y-96963556D01*
X226880951Y-96963556D02*
X226976189Y-97011175D01*
X226976189Y-97011175D02*
X227071427Y-97011175D01*
X227071427Y-97011175D02*
X227166665Y-96963556D01*
X227166665Y-96963556D02*
X227214284Y-96915936D01*
X227214284Y-96915936D02*
X227261903Y-96820698D01*
X227261903Y-96820698D02*
X227309522Y-96630222D01*
X227309522Y-96630222D02*
X227309522Y-96392127D01*
X227309522Y-96392127D02*
X227261903Y-96201651D01*
X227261903Y-96201651D02*
X227214284Y-96106413D01*
X227214284Y-96106413D02*
X227166665Y-96058794D01*
X227166665Y-96058794D02*
X227071427Y-96011175D01*
X226357141Y-96106413D02*
X226309522Y-96058794D01*
X226309522Y-96058794D02*
X226214284Y-96011175D01*
X226214284Y-96011175D02*
X225976189Y-96011175D01*
X225976189Y-96011175D02*
X225880951Y-96058794D01*
X225880951Y-96058794D02*
X225833332Y-96106413D01*
X225833332Y-96106413D02*
X225785713Y-96201651D01*
X225785713Y-96201651D02*
X225785713Y-96296889D01*
X225785713Y-96296889D02*
X225833332Y-96439746D01*
X225833332Y-96439746D02*
X226404760Y-97011175D01*
X226404760Y-97011175D02*
X225785713Y-97011175D01*
X224928570Y-96011175D02*
X225119046Y-96011175D01*
X225119046Y-96011175D02*
X225214284Y-96058794D01*
X225214284Y-96058794D02*
X225261903Y-96106413D01*
X225261903Y-96106413D02*
X225357141Y-96249270D01*
X225357141Y-96249270D02*
X225404760Y-96439746D01*
X225404760Y-96439746D02*
X225404760Y-96820698D01*
X225404760Y-96820698D02*
X225357141Y-96915936D01*
X225357141Y-96915936D02*
X225309522Y-96963556D01*
X225309522Y-96963556D02*
X225214284Y-97011175D01*
X225214284Y-97011175D02*
X225023808Y-97011175D01*
X225023808Y-97011175D02*
X224928570Y-96963556D01*
X224928570Y-96963556D02*
X224880951Y-96915936D01*
X224880951Y-96915936D02*
X224833332Y-96820698D01*
X224833332Y-96820698D02*
X224833332Y-96582603D01*
X224833332Y-96582603D02*
X224880951Y-96487365D01*
X224880951Y-96487365D02*
X224928570Y-96439746D01*
X224928570Y-96439746D02*
X225023808Y-96392127D01*
X225023808Y-96392127D02*
X225214284Y-96392127D01*
X225214284Y-96392127D02*
X225309522Y-96439746D01*
X225309522Y-96439746D02*
X225357141Y-96487365D01*
X225357141Y-96487365D02*
X225404760Y-96582603D01*
X238380953Y-98097309D02*
X238238096Y-98144928D01*
X238238096Y-98144928D02*
X238190477Y-98192547D01*
X238190477Y-98192547D02*
X238142858Y-98287785D01*
X238142858Y-98287785D02*
X238142858Y-98430642D01*
X238142858Y-98430642D02*
X238190477Y-98525880D01*
X238190477Y-98525880D02*
X238238096Y-98573500D01*
X238238096Y-98573500D02*
X238333334Y-98621119D01*
X238333334Y-98621119D02*
X238714286Y-98621119D01*
X238714286Y-98621119D02*
X238714286Y-97621119D01*
X238714286Y-97621119D02*
X238380953Y-97621119D01*
X238380953Y-97621119D02*
X238285715Y-97668738D01*
X238285715Y-97668738D02*
X238238096Y-97716357D01*
X238238096Y-97716357D02*
X238190477Y-97811595D01*
X238190477Y-97811595D02*
X238190477Y-97906833D01*
X238190477Y-97906833D02*
X238238096Y-98002071D01*
X238238096Y-98002071D02*
X238285715Y-98049690D01*
X238285715Y-98049690D02*
X238380953Y-98097309D01*
X238380953Y-98097309D02*
X238714286Y-98097309D01*
X237809524Y-97954452D02*
X237571429Y-98621119D01*
X237333334Y-97954452D02*
X237571429Y-98621119D01*
X237571429Y-98621119D02*
X237666667Y-98859214D01*
X237666667Y-98859214D02*
X237714286Y-98906833D01*
X237714286Y-98906833D02*
X237809524Y-98954452D01*
X236952381Y-98525880D02*
X236904762Y-98573500D01*
X236904762Y-98573500D02*
X236952381Y-98621119D01*
X236952381Y-98621119D02*
X237000000Y-98573500D01*
X237000000Y-98573500D02*
X236952381Y-98525880D01*
X236952381Y-98525880D02*
X236952381Y-98621119D01*
X236952381Y-98002071D02*
X236904762Y-98049690D01*
X236904762Y-98049690D02*
X236952381Y-98097309D01*
X236952381Y-98097309D02*
X237000000Y-98049690D01*
X237000000Y-98049690D02*
X236952381Y-98002071D01*
X236952381Y-98002071D02*
X236952381Y-98097309D01*
X235142858Y-98621119D02*
X235476191Y-98144928D01*
X235714286Y-98621119D02*
X235714286Y-97621119D01*
X235714286Y-97621119D02*
X235333334Y-97621119D01*
X235333334Y-97621119D02*
X235238096Y-97668738D01*
X235238096Y-97668738D02*
X235190477Y-97716357D01*
X235190477Y-97716357D02*
X235142858Y-97811595D01*
X235142858Y-97811595D02*
X235142858Y-97954452D01*
X235142858Y-97954452D02*
X235190477Y-98049690D01*
X235190477Y-98049690D02*
X235238096Y-98097309D01*
X235238096Y-98097309D02*
X235333334Y-98144928D01*
X235333334Y-98144928D02*
X235714286Y-98144928D01*
X234285715Y-97954452D02*
X234285715Y-98621119D01*
X234714286Y-97954452D02*
X234714286Y-98478261D01*
X234714286Y-98478261D02*
X234666667Y-98573500D01*
X234666667Y-98573500D02*
X234571429Y-98621119D01*
X234571429Y-98621119D02*
X234428572Y-98621119D01*
X234428572Y-98621119D02*
X234333334Y-98573500D01*
X234333334Y-98573500D02*
X234285715Y-98525880D01*
X233380953Y-98621119D02*
X233380953Y-97621119D01*
X233380953Y-98573500D02*
X233476191Y-98621119D01*
X233476191Y-98621119D02*
X233666667Y-98621119D01*
X233666667Y-98621119D02*
X233761905Y-98573500D01*
X233761905Y-98573500D02*
X233809524Y-98525880D01*
X233809524Y-98525880D02*
X233857143Y-98430642D01*
X233857143Y-98430642D02*
X233857143Y-98144928D01*
X233857143Y-98144928D02*
X233809524Y-98049690D01*
X233809524Y-98049690D02*
X233761905Y-98002071D01*
X233761905Y-98002071D02*
X233666667Y-97954452D01*
X233666667Y-97954452D02*
X233476191Y-97954452D01*
X233476191Y-97954452D02*
X233380953Y-98002071D01*
X233000000Y-97954452D02*
X232761905Y-98621119D01*
X232523810Y-97954452D02*
X232761905Y-98621119D01*
X232761905Y-98621119D02*
X232857143Y-98859214D01*
X232857143Y-98859214D02*
X232904762Y-98906833D01*
X232904762Y-98906833D02*
X233000000Y-98954452D01*
X231380952Y-98097309D02*
X231047619Y-98097309D01*
X230904762Y-98621119D02*
X231380952Y-98621119D01*
X231380952Y-98621119D02*
X231380952Y-97621119D01*
X231380952Y-97621119D02*
X230904762Y-97621119D01*
X230047619Y-98621119D02*
X230047619Y-98097309D01*
X230047619Y-98097309D02*
X230095238Y-98002071D01*
X230095238Y-98002071D02*
X230190476Y-97954452D01*
X230190476Y-97954452D02*
X230380952Y-97954452D01*
X230380952Y-97954452D02*
X230476190Y-98002071D01*
X230047619Y-98573500D02*
X230142857Y-98621119D01*
X230142857Y-98621119D02*
X230380952Y-98621119D01*
X230380952Y-98621119D02*
X230476190Y-98573500D01*
X230476190Y-98573500D02*
X230523809Y-98478261D01*
X230523809Y-98478261D02*
X230523809Y-98383023D01*
X230523809Y-98383023D02*
X230476190Y-98287785D01*
X230476190Y-98287785D02*
X230380952Y-98240166D01*
X230380952Y-98240166D02*
X230142857Y-98240166D01*
X230142857Y-98240166D02*
X230047619Y-98192547D01*
X229571428Y-98621119D02*
X229571428Y-97954452D01*
X229571428Y-98144928D02*
X229523809Y-98049690D01*
X229523809Y-98049690D02*
X229476190Y-98002071D01*
X229476190Y-98002071D02*
X229380952Y-97954452D01*
X229380952Y-97954452D02*
X229285714Y-97954452D01*
X228952380Y-97954452D02*
X228952380Y-98621119D01*
X228952380Y-98049690D02*
X228904761Y-98002071D01*
X228904761Y-98002071D02*
X228809523Y-97954452D01*
X228809523Y-97954452D02*
X228666666Y-97954452D01*
X228666666Y-97954452D02*
X228571428Y-98002071D01*
X228571428Y-98002071D02*
X228523809Y-98097309D01*
X228523809Y-98097309D02*
X228523809Y-98621119D01*
X227666666Y-98573500D02*
X227761904Y-98621119D01*
X227761904Y-98621119D02*
X227952380Y-98621119D01*
X227952380Y-98621119D02*
X228047618Y-98573500D01*
X228047618Y-98573500D02*
X228095237Y-98478261D01*
X228095237Y-98478261D02*
X228095237Y-98097309D01*
X228095237Y-98097309D02*
X228047618Y-98002071D01*
X228047618Y-98002071D02*
X227952380Y-97954452D01*
X227952380Y-97954452D02*
X227761904Y-97954452D01*
X227761904Y-97954452D02*
X227666666Y-98002071D01*
X227666666Y-98002071D02*
X227619047Y-98097309D01*
X227619047Y-98097309D02*
X227619047Y-98192547D01*
X227619047Y-98192547D02*
X228095237Y-98287785D01*
X227238094Y-98573500D02*
X227142856Y-98621119D01*
X227142856Y-98621119D02*
X226952380Y-98621119D01*
X226952380Y-98621119D02*
X226857142Y-98573500D01*
X226857142Y-98573500D02*
X226809523Y-98478261D01*
X226809523Y-98478261D02*
X226809523Y-98430642D01*
X226809523Y-98430642D02*
X226857142Y-98335404D01*
X226857142Y-98335404D02*
X226952380Y-98287785D01*
X226952380Y-98287785D02*
X227095237Y-98287785D01*
X227095237Y-98287785D02*
X227190475Y-98240166D01*
X227190475Y-98240166D02*
X227238094Y-98144928D01*
X227238094Y-98144928D02*
X227238094Y-98097309D01*
X227238094Y-98097309D02*
X227190475Y-98002071D01*
X227190475Y-98002071D02*
X227095237Y-97954452D01*
X227095237Y-97954452D02*
X226952380Y-97954452D01*
X226952380Y-97954452D02*
X226857142Y-98002071D01*
X226523808Y-97954452D02*
X226142856Y-97954452D01*
X226380951Y-97621119D02*
X226380951Y-98478261D01*
X226380951Y-98478261D02*
X226333332Y-98573500D01*
X226333332Y-98573500D02*
X226238094Y-98621119D01*
X226238094Y-98621119D02*
X226142856Y-98621119D01*
D12*
X239261904Y-114954819D02*
X239261904Y-115764342D01*
X239261904Y-115764342D02*
X239214285Y-115859580D01*
X239214285Y-115859580D02*
X239166666Y-115907200D01*
X239166666Y-115907200D02*
X239071428Y-115954819D01*
X239071428Y-115954819D02*
X238880952Y-115954819D01*
X238880952Y-115954819D02*
X238785714Y-115907200D01*
X238785714Y-115907200D02*
X238738095Y-115859580D01*
X238738095Y-115859580D02*
X238690476Y-115764342D01*
X238690476Y-115764342D02*
X238690476Y-114954819D01*
X237785714Y-115288152D02*
X237785714Y-115954819D01*
X238023809Y-114907200D02*
X238261904Y-115621485D01*
X238261904Y-115621485D02*
X237642857Y-115621485D01*
X238261904Y-150704819D02*
X238261904Y-151514342D01*
X238261904Y-151514342D02*
X238214285Y-151609580D01*
X238214285Y-151609580D02*
X238166666Y-151657200D01*
X238166666Y-151657200D02*
X238071428Y-151704819D01*
X238071428Y-151704819D02*
X237880952Y-151704819D01*
X237880952Y-151704819D02*
X237785714Y-151657200D01*
X237785714Y-151657200D02*
X237738095Y-151609580D01*
X237738095Y-151609580D02*
X237690476Y-151514342D01*
X237690476Y-151514342D02*
X237690476Y-150704819D01*
X236738095Y-150704819D02*
X237214285Y-150704819D01*
X237214285Y-150704819D02*
X237261904Y-151181009D01*
X237261904Y-151181009D02*
X237214285Y-151133390D01*
X237214285Y-151133390D02*
X237119047Y-151085771D01*
X237119047Y-151085771D02*
X236880952Y-151085771D01*
X236880952Y-151085771D02*
X236785714Y-151133390D01*
X236785714Y-151133390D02*
X236738095Y-151181009D01*
X236738095Y-151181009D02*
X236690476Y-151276247D01*
X236690476Y-151276247D02*
X236690476Y-151514342D01*
X236690476Y-151514342D02*
X236738095Y-151609580D01*
X236738095Y-151609580D02*
X236785714Y-151657200D01*
X236785714Y-151657200D02*
X236880952Y-151704819D01*
X236880952Y-151704819D02*
X237119047Y-151704819D01*
X237119047Y-151704819D02*
X237214285Y-151657200D01*
X237214285Y-151657200D02*
X237261904Y-151609580D01*
D13*
%TO.C,U4*%
X232500000Y-117900000D02*
X232500000Y-128400000D01*
X232500000Y-128400000D02*
X238500000Y-128400000D01*
X233300000Y-117100000D02*
X232500000Y-117900000D01*
X238500000Y-117100000D02*
X233300000Y-117100000D01*
X238500000Y-128400000D02*
X238500000Y-117100000D01*
D10*
X232650000Y-117250000D02*
G75*
G02*
X232350000Y-117250000I-150000J0D01*
G01*
X232350000Y-117250000D02*
G75*
G02*
X232650000Y-117250000I150000J0D01*
G01*
D14*
%TO.C,G\u002A\u002A\u002A*%
G36*
X222497877Y-95411273D02*
G01*
X222554427Y-95583313D01*
X222621752Y-95788135D01*
X222636001Y-95831485D01*
X222672954Y-96049967D01*
X222682946Y-96191117D01*
X222702699Y-96470173D01*
X222697363Y-96933258D01*
X222675089Y-97205639D01*
X222672791Y-97233747D01*
X222659589Y-97395195D01*
X222592025Y-97811956D01*
X222549014Y-97960712D01*
X222514609Y-98079701D01*
X222497315Y-98139511D01*
X222484907Y-98173772D01*
X222463120Y-98263081D01*
X222434280Y-98381302D01*
X222403649Y-98613644D01*
X222399664Y-98660657D01*
X222361543Y-98902336D01*
X222355545Y-98924006D01*
X222305757Y-99103885D01*
X222304337Y-99108627D01*
X222243223Y-99312740D01*
X222199870Y-99544151D01*
X222198958Y-99551905D01*
X222167259Y-99759527D01*
X222130431Y-99926939D01*
X222123139Y-99962889D01*
X222135708Y-99995461D01*
X222164881Y-100071058D01*
X222322605Y-100134131D01*
X222603282Y-100155475D01*
X222857392Y-100202313D01*
X223034191Y-100284314D01*
X223182052Y-100352893D01*
X223528065Y-100589188D01*
X223874423Y-100892575D01*
X224200120Y-101244433D01*
X224484149Y-101626137D01*
X224705502Y-102019066D01*
X224772157Y-102191573D01*
X224835134Y-102439207D01*
X224866645Y-102676266D01*
X224865607Y-102718911D01*
X224862082Y-102863718D01*
X224816840Y-102962530D01*
X224765176Y-103047634D01*
X224741334Y-103204400D01*
X224722792Y-103349706D01*
X224673601Y-103441467D01*
X224636970Y-103485132D01*
X224605867Y-103614797D01*
X224568670Y-103740743D01*
X224464890Y-103887244D01*
X224372497Y-103971336D01*
X224294010Y-103986159D01*
X224193957Y-103910613D01*
X224147043Y-103858364D01*
X224082822Y-103699244D01*
X224063623Y-103447902D01*
X224045699Y-103135655D01*
X223933311Y-102646311D01*
X223709151Y-102174965D01*
X223363264Y-101696721D01*
X223314217Y-101640146D01*
X223028763Y-101393370D01*
X222714336Y-101267896D01*
X222343395Y-101251705D01*
X222323586Y-101253461D01*
X222182797Y-101278322D01*
X222074561Y-101339624D01*
X221965896Y-101464578D01*
X221823819Y-101680400D01*
X221690897Y-101897236D01*
X221532948Y-102165943D01*
X221410825Y-102385483D01*
X221337148Y-102514049D01*
X221075820Y-102861208D01*
X220764902Y-103153304D01*
X220429542Y-103372729D01*
X220094888Y-103501873D01*
X219786088Y-103523127D01*
X219720341Y-103515714D01*
X219572607Y-103524209D01*
X219476602Y-103596417D01*
X219412148Y-103756160D01*
X219359066Y-104027262D01*
X219325814Y-104165223D01*
X219212410Y-104399919D01*
X219056064Y-104564646D01*
X218882682Y-104626800D01*
X218836154Y-104621439D01*
X218670875Y-104553535D01*
X218498036Y-104434558D01*
X218361884Y-104298789D01*
X218306668Y-104180512D01*
X218300835Y-104139479D01*
X218246816Y-104084933D01*
X218233319Y-104087479D01*
X218133795Y-104157474D01*
X217996359Y-104296737D01*
X217851537Y-104469425D01*
X217729859Y-104639697D01*
X217661852Y-104771712D01*
X217617604Y-104886069D01*
X217539246Y-105023221D01*
X217514645Y-105050284D01*
X217445353Y-105064967D01*
X217350412Y-104972421D01*
X217251050Y-104878498D01*
X217141797Y-104830000D01*
X217109857Y-104822382D01*
X216993490Y-104748761D01*
X216844786Y-104619982D01*
X216690901Y-104464575D01*
X216558986Y-104311067D01*
X216476195Y-104187985D01*
X216469682Y-104123859D01*
X216530919Y-104131481D01*
X216666246Y-104210858D01*
X216833927Y-104347913D01*
X216923680Y-104428287D01*
X217154710Y-104601068D01*
X217331817Y-104665024D01*
X217471221Y-104622940D01*
X217589144Y-104477603D01*
X217594997Y-104467563D01*
X217734357Y-104272839D01*
X217888386Y-104112369D01*
X218059361Y-103970472D01*
X217539548Y-103579229D01*
X217310067Y-103403919D01*
X217139220Y-103263054D01*
X217050269Y-103168983D01*
X217027875Y-103105037D01*
X217056698Y-103054547D01*
X217087399Y-103051861D01*
X217212162Y-103096715D01*
X217399452Y-103190244D01*
X217617501Y-103314866D01*
X217834540Y-103452998D01*
X218018801Y-103587054D01*
X218076456Y-103631530D01*
X218198905Y-103701302D01*
X218238934Y-103669070D01*
X218244294Y-103637541D01*
X218303542Y-103499642D01*
X218407218Y-103326861D01*
X218575502Y-103079209D01*
X218384098Y-102921671D01*
X218292847Y-102849423D01*
X218087551Y-102695665D01*
X217868383Y-102539218D01*
X217720632Y-102429072D01*
X217612796Y-102315665D01*
X217615351Y-102243023D01*
X217624335Y-102235116D01*
X217727202Y-102226296D01*
X217895049Y-102320151D01*
X218103468Y-102468558D01*
X218104213Y-102108345D01*
X218106326Y-101990169D01*
X218121711Y-101717710D01*
X218146942Y-101494133D01*
X218155609Y-101440351D01*
X218165311Y-101303065D01*
X218119244Y-101249606D01*
X217993797Y-101240937D01*
X217876330Y-101246354D01*
X217528030Y-101307846D01*
X217173000Y-101425042D01*
X216846722Y-101581917D01*
X216584683Y-101762446D01*
X216422365Y-101950604D01*
X216419470Y-101955970D01*
X216346288Y-102081073D01*
X216310430Y-102094659D01*
X216289353Y-102006139D01*
X216302254Y-101863569D01*
X216375843Y-101690554D01*
X216447011Y-101612910D01*
X216637887Y-101474061D01*
X216889512Y-101333006D01*
X217159968Y-101212333D01*
X217407341Y-101134633D01*
X217416850Y-101132544D01*
X217633400Y-101081244D01*
X217736719Y-101041192D01*
X217745997Y-100998724D01*
X217680424Y-100940174D01*
X217639246Y-100905602D01*
X217505853Y-100769585D01*
X217358690Y-100597031D01*
X217222938Y-100373478D01*
X217143062Y-100036304D01*
X217157448Y-99927520D01*
X217358401Y-99927520D01*
X217361631Y-100031272D01*
X217427821Y-100340285D01*
X217593141Y-100594673D01*
X217875639Y-100825777D01*
X218011454Y-100912489D01*
X218166915Y-101002164D01*
X218249697Y-101036933D01*
X218252493Y-101036652D01*
X218322992Y-100974681D01*
X218435164Y-100824910D01*
X218568475Y-100617094D01*
X218702391Y-100380986D01*
X218739399Y-100302487D01*
X218774752Y-100134887D01*
X218740226Y-99944140D01*
X218631368Y-99686718D01*
X218482087Y-99429419D01*
X218276171Y-99217517D01*
X218056360Y-99138471D01*
X217825524Y-99193117D01*
X217586532Y-99382289D01*
X217453913Y-99540905D01*
X217377523Y-99710243D01*
X217358401Y-99927520D01*
X217157448Y-99927520D01*
X217189138Y-99687896D01*
X217361122Y-99350592D01*
X217438909Y-99249389D01*
X217571155Y-99102451D01*
X217665922Y-99028383D01*
X217761942Y-98971002D01*
X217743074Y-98919143D01*
X217612464Y-98883023D01*
X217382288Y-98869467D01*
X217178106Y-98879518D01*
X216692319Y-98982587D01*
X216249496Y-99185275D01*
X215886076Y-99472887D01*
X215744227Y-99610693D01*
X215589930Y-99737061D01*
X215488852Y-99791845D01*
X215392934Y-99827869D01*
X215252727Y-99924710D01*
X215179269Y-99987971D01*
X215131462Y-99997639D01*
X215123201Y-99904392D01*
X215138776Y-99811059D01*
X215198800Y-99618070D01*
X215288480Y-99393130D01*
X215359538Y-99220067D01*
X215412216Y-99059812D01*
X215416532Y-99011624D01*
X215732801Y-99011624D01*
X215734276Y-99066438D01*
X215757683Y-99215876D01*
X215800534Y-99275867D01*
X215816527Y-99274136D01*
X215868267Y-99214824D01*
X215871364Y-99202807D01*
X215945971Y-99122573D01*
X216088956Y-99023571D01*
X216316114Y-98905302D01*
X216870104Y-98726344D01*
X217483070Y-98666266D01*
X217485576Y-98666267D01*
X217764485Y-98672870D01*
X217961323Y-98701444D01*
X218128825Y-98765324D01*
X218319727Y-98877847D01*
X218468071Y-98989106D01*
X218693777Y-99227313D01*
X218875694Y-99503591D01*
X219003192Y-99791400D01*
X219065641Y-100064202D01*
X219061597Y-100134887D01*
X219052410Y-100295457D01*
X218952871Y-100458625D01*
X218904701Y-100503970D01*
X218751351Y-100699082D01*
X218592468Y-100956859D01*
X218456000Y-101228956D01*
X218369896Y-101467028D01*
X218340443Y-101630077D01*
X218316407Y-101922632D01*
X218318407Y-102214209D01*
X218335576Y-102419515D01*
X218371753Y-102592414D01*
X218441496Y-102713761D01*
X218563395Y-102830307D01*
X218614522Y-102874978D01*
X218733331Y-102995494D01*
X218780801Y-103071946D01*
X218773275Y-103099959D01*
X218710719Y-103221544D01*
X218605465Y-103387659D01*
X218509003Y-103574483D01*
X218457441Y-103851176D01*
X218504556Y-104107085D01*
X218648571Y-104304374D01*
X218776027Y-104391491D01*
X218923775Y-104420831D01*
X219033100Y-104326065D01*
X219116307Y-104101867D01*
X219138116Y-104019036D01*
X219212186Y-103760496D01*
X219281977Y-103543067D01*
X219332628Y-103413984D01*
X219397163Y-103341010D01*
X219512439Y-103318453D01*
X219720686Y-103325356D01*
X219858153Y-103329162D01*
X220046817Y-103308441D01*
X220231707Y-103239521D01*
X220468959Y-103105944D01*
X220514180Y-103078039D01*
X220709482Y-102940546D01*
X220874271Y-102782982D01*
X221039376Y-102571883D01*
X221235626Y-102273787D01*
X221350239Y-102090298D01*
X221572085Y-101722884D01*
X221720134Y-101456704D01*
X221792771Y-101294780D01*
X221788380Y-101240133D01*
X221778778Y-101220644D01*
X221828801Y-101138533D01*
X221835501Y-101131261D01*
X221971260Y-101069770D01*
X222193660Y-101040206D01*
X222461517Y-101042449D01*
X222733645Y-101076378D01*
X222968861Y-101141872D01*
X223066919Y-101190772D01*
X223314520Y-101379975D01*
X223569350Y-101648080D01*
X223808404Y-101962898D01*
X224008679Y-102292239D01*
X224147167Y-102603914D01*
X224200866Y-102865733D01*
X224203671Y-102942953D01*
X224222573Y-102986591D01*
X224274728Y-102912777D01*
X224348784Y-102832856D01*
X224439035Y-102867808D01*
X224553838Y-102919365D01*
X224632268Y-102863919D01*
X224665627Y-102718911D01*
X224649259Y-102505179D01*
X224578509Y-102243561D01*
X224442572Y-101953177D01*
X224235652Y-101619886D01*
X223992877Y-101296657D01*
X223748088Y-101032827D01*
X223717482Y-101004493D01*
X223427594Y-100748973D01*
X223187428Y-100573707D01*
X222959874Y-100459687D01*
X222707824Y-100387905D01*
X222394168Y-100339356D01*
X222188341Y-100315486D01*
X221976376Y-100299142D01*
X221836502Y-100308064D01*
X221731908Y-100345948D01*
X221625782Y-100416489D01*
X221600365Y-100435006D01*
X221459848Y-100527546D01*
X221374344Y-100567918D01*
X221359238Y-100575596D01*
X221268371Y-100658410D01*
X221123551Y-100812397D01*
X221063914Y-100880655D01*
X220948268Y-101013020D01*
X220922839Y-101043032D01*
X220706902Y-101296594D01*
X220492197Y-101546838D01*
X220400630Y-101652537D01*
X220321734Y-101743609D01*
X220217061Y-101870259D01*
X220109448Y-102021384D01*
X220067734Y-102111308D01*
X220064562Y-102135564D01*
X220005541Y-102188400D01*
X219965250Y-102192964D01*
X219836207Y-102229513D01*
X219815628Y-102235754D01*
X219770807Y-102221856D01*
X219744529Y-102142209D01*
X219732161Y-101973599D01*
X219729677Y-101748133D01*
X219932267Y-101748133D01*
X219932268Y-101749072D01*
X219955509Y-101888619D01*
X220020136Y-101900334D01*
X220119174Y-101782919D01*
X220190217Y-101652537D01*
X220177461Y-101592044D01*
X220067734Y-101578800D01*
X219964017Y-101615348D01*
X219932267Y-101748133D01*
X219729677Y-101748133D01*
X219729067Y-101692814D01*
X219701060Y-101119343D01*
X219621080Y-100622298D01*
X219818902Y-100622298D01*
X219823241Y-100687906D01*
X219830066Y-100714567D01*
X219863104Y-100875383D01*
X219898226Y-101080746D01*
X219898335Y-101081449D01*
X219939261Y-101264157D01*
X220007638Y-101353162D01*
X220135335Y-101390028D01*
X220196307Y-101397403D01*
X220291999Y-101383358D01*
X220351098Y-101300204D01*
X220404999Y-101116040D01*
X220419270Y-101050867D01*
X220621290Y-101050867D01*
X220651024Y-101066806D01*
X220731272Y-100966119D01*
X220770124Y-100880655D01*
X220752888Y-100833733D01*
X220715558Y-100849536D01*
X220712239Y-100854307D01*
X220649120Y-100945028D01*
X220621290Y-101050867D01*
X220419270Y-101050867D01*
X220425207Y-101023751D01*
X220444099Y-100854307D01*
X220426838Y-100765316D01*
X220403320Y-100750631D01*
X220271969Y-100700011D01*
X220082189Y-100646465D01*
X220028478Y-100633646D01*
X219877327Y-100605809D01*
X219818902Y-100622298D01*
X219621080Y-100622298D01*
X219617609Y-100600724D01*
X219602774Y-100554190D01*
X220700451Y-100554190D01*
X220739500Y-100621155D01*
X220853596Y-100625863D01*
X221011678Y-100571628D01*
X221182687Y-100461761D01*
X221295997Y-100363105D01*
X221341941Y-100284314D01*
X221271708Y-100234508D01*
X221076210Y-100190534D01*
X220949479Y-100172286D01*
X220843856Y-100189378D01*
X220828042Y-100215758D01*
X220796028Y-100269160D01*
X220774630Y-100338251D01*
X220711639Y-100512000D01*
X220700451Y-100554190D01*
X219602774Y-100554190D01*
X219508953Y-100259884D01*
X219883435Y-100259884D01*
X219901787Y-100356133D01*
X219921465Y-100370594D01*
X220053970Y-100422212D01*
X220244245Y-100464830D01*
X220285487Y-100471245D01*
X220445248Y-100484422D01*
X220524033Y-100449094D01*
X220565054Y-100349763D01*
X220596578Y-100215758D01*
X220583569Y-100127548D01*
X220495088Y-100066692D01*
X220304801Y-99997545D01*
X220193922Y-99960618D01*
X220064068Y-99927640D01*
X220010487Y-99944094D01*
X220000001Y-100011498D01*
X219991098Y-100073849D01*
X219918721Y-100210587D01*
X219883435Y-100259884D01*
X219508953Y-100259884D01*
X219483497Y-100180030D01*
X219479204Y-100170080D01*
X219416341Y-99994821D01*
X219390401Y-99865543D01*
X219387469Y-99853663D01*
X219609576Y-99853663D01*
X219646552Y-99999767D01*
X219713615Y-100190267D01*
X219780831Y-100020933D01*
X219785808Y-100008152D01*
X219803423Y-99917526D01*
X220890412Y-99917526D01*
X220898479Y-99922363D01*
X220998828Y-99952350D01*
X221168401Y-99988564D01*
X221212175Y-99996582D01*
X221354743Y-100011522D01*
X221411930Y-99972822D01*
X221412711Y-99964489D01*
X221625601Y-99964489D01*
X221646851Y-100040123D01*
X221761067Y-100088667D01*
X221815014Y-100078120D01*
X221889108Y-99995461D01*
X221887437Y-99880980D01*
X221801556Y-99795780D01*
X221757929Y-99782997D01*
X221658260Y-99815389D01*
X221648253Y-99861075D01*
X221625601Y-99964489D01*
X221412711Y-99964489D01*
X221422401Y-99861075D01*
X221417885Y-99795400D01*
X221359059Y-99692023D01*
X221202268Y-99627880D01*
X221069692Y-99600399D01*
X220979714Y-99624820D01*
X220955903Y-99670761D01*
X220924279Y-99731777D01*
X220892241Y-99843996D01*
X220890412Y-99917526D01*
X219803423Y-99917526D01*
X219812267Y-99872023D01*
X219749610Y-99794591D01*
X219695831Y-99771004D01*
X219615332Y-99773424D01*
X219609576Y-99853663D01*
X219387469Y-99853663D01*
X219377097Y-99811634D01*
X219284131Y-99723714D01*
X219227478Y-99681660D01*
X219222370Y-99609625D01*
X220141632Y-99609625D01*
X220181800Y-99722791D01*
X220348775Y-99811107D01*
X220362373Y-99815827D01*
X220549207Y-99872023D01*
X220554573Y-99873637D01*
X220650949Y-99875800D01*
X220677334Y-99823273D01*
X220679605Y-99795271D01*
X220711993Y-99670761D01*
X220687740Y-99599309D01*
X220576029Y-99527230D01*
X220422973Y-99476285D01*
X220277408Y-99462294D01*
X220188165Y-99501075D01*
X220141632Y-99609625D01*
X219222370Y-99609625D01*
X219218491Y-99554917D01*
X219230515Y-99416705D01*
X219209222Y-99344303D01*
X219494194Y-99344303D01*
X219511752Y-99452267D01*
X219588089Y-99511757D01*
X219738939Y-99569756D01*
X219860808Y-99578213D01*
X219966181Y-99498345D01*
X220000001Y-99305933D01*
X219983932Y-99268348D01*
X219892398Y-99178034D01*
X219765894Y-99089158D01*
X220279610Y-99089158D01*
X220326739Y-99191787D01*
X220443455Y-99264994D01*
X220550199Y-99305933D01*
X220580768Y-99317657D01*
X220756999Y-99335293D01*
X220845101Y-99258933D01*
X220845462Y-99257796D01*
X221060975Y-99257796D01*
X221073834Y-99346539D01*
X221140605Y-99386866D01*
X221212106Y-99412356D01*
X221373138Y-99485545D01*
X221471983Y-99511411D01*
X221531887Y-99429800D01*
X221549855Y-99377205D01*
X221778643Y-99377205D01*
X221786634Y-99515727D01*
X221832367Y-99588139D01*
X221919462Y-99601738D01*
X221988513Y-99496000D01*
X222029252Y-99343528D01*
X222075308Y-99108627D01*
X222068314Y-98977766D01*
X222008769Y-98937200D01*
X221978674Y-98945903D01*
X221894165Y-99041501D01*
X221820988Y-99202199D01*
X221778643Y-99377205D01*
X221549855Y-99377205D01*
X221575416Y-99302385D01*
X221641067Y-99121295D01*
X221678886Y-99013233D01*
X221681242Y-98924006D01*
X221601936Y-98875770D01*
X221415158Y-98835921D01*
X221320592Y-98819510D01*
X221210149Y-98822994D01*
X221150173Y-98896721D01*
X221099496Y-99071402D01*
X221096933Y-99081539D01*
X221060975Y-99257796D01*
X220845462Y-99257796D01*
X220891900Y-99111614D01*
X220955540Y-98858147D01*
X220959791Y-98712724D01*
X220905577Y-98666267D01*
X220781885Y-98638209D01*
X220615972Y-98567961D01*
X220575407Y-98547430D01*
X221321484Y-98547430D01*
X221367339Y-98607798D01*
X221402816Y-98628776D01*
X221580511Y-98673889D01*
X221631614Y-98642507D01*
X221964267Y-98642507D01*
X221972411Y-98680390D01*
X222021895Y-98712724D01*
X222054456Y-98734000D01*
X222082551Y-98722614D01*
X222153519Y-98616466D01*
X222214393Y-98429200D01*
X222246915Y-98263081D01*
X222245875Y-98154507D01*
X222198563Y-98124400D01*
X222133675Y-98170727D01*
X222054486Y-98305086D01*
X221990553Y-98478849D01*
X221964267Y-98642507D01*
X221631614Y-98642507D01*
X221715755Y-98590837D01*
X221809758Y-98378995D01*
X221830667Y-98298386D01*
X221865980Y-98145790D01*
X221874413Y-98079701D01*
X221824150Y-98061175D01*
X221693195Y-98025340D01*
X221664746Y-98018786D01*
X221563036Y-98019771D01*
X221486483Y-98093223D01*
X221401206Y-98267203D01*
X221335452Y-98436980D01*
X221321484Y-98547430D01*
X220575407Y-98547430D01*
X220552688Y-98535931D01*
X220458134Y-98508753D01*
X220402963Y-98565108D01*
X220348402Y-98728219D01*
X220295981Y-98922728D01*
X220279610Y-99089158D01*
X219765894Y-99089158D01*
X219760397Y-99085296D01*
X219634923Y-99021215D01*
X219562968Y-99016872D01*
X219546019Y-99045607D01*
X219508602Y-99183362D01*
X219494194Y-99344303D01*
X219209222Y-99344303D01*
X219160150Y-99177442D01*
X219001443Y-98915083D01*
X218771503Y-98656030D01*
X218487438Y-98426689D01*
X218355767Y-98340495D01*
X218202535Y-98258516D01*
X218048850Y-98214050D01*
X217849721Y-98195716D01*
X217560157Y-98192133D01*
X217083578Y-98221606D01*
X216509727Y-98355270D01*
X215976950Y-98603329D01*
X215820830Y-98711636D01*
X215748929Y-98829411D01*
X215732801Y-99011624D01*
X215416532Y-99011624D01*
X215418953Y-98984596D01*
X215416667Y-98981498D01*
X215426190Y-98896025D01*
X215486634Y-98751597D01*
X215510293Y-98711645D01*
X215631716Y-98584337D01*
X215838138Y-98449730D01*
X216152029Y-98292316D01*
X216364191Y-98196620D01*
X216598378Y-98106352D01*
X216815173Y-98051826D01*
X217065527Y-98021223D01*
X217400395Y-98002724D01*
X217534081Y-97998018D01*
X217908204Y-98002189D01*
X218199164Y-98047988D01*
X218445709Y-98149701D01*
X218686588Y-98321617D01*
X218960547Y-98578024D01*
X218969563Y-98587024D01*
X219149355Y-98759312D01*
X219289885Y-98881528D01*
X219376284Y-98943004D01*
X219393680Y-98933074D01*
X219327205Y-98841067D01*
X219291694Y-98768840D01*
X219613586Y-98768840D01*
X219614510Y-98769292D01*
X219680719Y-98808993D01*
X219811351Y-98889967D01*
X219819591Y-98895102D01*
X219951792Y-98972845D01*
X220020763Y-99004933D01*
X220040651Y-98973916D01*
X220087104Y-98854145D01*
X220140641Y-98691342D01*
X220184821Y-98536399D01*
X220203201Y-98440211D01*
X220202309Y-98436283D01*
X220131930Y-98391578D01*
X219983502Y-98342277D01*
X219951306Y-98334080D01*
X219818482Y-98315897D01*
X219744773Y-98369486D01*
X219681754Y-98524014D01*
X219667696Y-98565616D01*
X219624122Y-98708160D01*
X219613586Y-98768840D01*
X219291694Y-98768840D01*
X219285612Y-98756469D01*
X219356179Y-98684072D01*
X219392839Y-98649946D01*
X219466813Y-98486448D01*
X219523038Y-98221404D01*
X219552113Y-98047023D01*
X219563366Y-97994554D01*
X219772545Y-97994554D01*
X219813587Y-98064037D01*
X219947586Y-98119590D01*
X220066339Y-98159054D01*
X220204414Y-98183847D01*
X220223147Y-98173374D01*
X220508424Y-98173374D01*
X220521691Y-98266637D01*
X220534221Y-98277122D01*
X220649117Y-98343662D01*
X220820733Y-98422815D01*
X220862403Y-98440211D01*
X221065732Y-98525096D01*
X221186932Y-98256324D01*
X221218814Y-98182307D01*
X221272233Y-98032657D01*
X221280599Y-97960712D01*
X221258323Y-97950618D01*
X221134213Y-97920707D01*
X220944791Y-97887996D01*
X220922634Y-97884921D01*
X222191339Y-97884921D01*
X222261434Y-97921200D01*
X222262173Y-97921196D01*
X222348741Y-97855390D01*
X222405198Y-97667200D01*
X222409752Y-97638938D01*
X222443238Y-97439593D01*
X222469684Y-97294573D01*
X222472226Y-97233747D01*
X222432084Y-97213904D01*
X222401779Y-97248092D01*
X222370667Y-97369784D01*
X222363626Y-97432531D01*
X222310547Y-97552053D01*
X222265555Y-97620683D01*
X222204383Y-97768800D01*
X222191339Y-97884921D01*
X220922634Y-97884921D01*
X220842125Y-97873748D01*
X220695848Y-97869577D01*
X220614642Y-97915310D01*
X220552082Y-98027431D01*
X220508424Y-98173374D01*
X220223147Y-98173374D01*
X220281898Y-98140528D01*
X220340344Y-98018390D01*
X220362639Y-97957792D01*
X220399321Y-97800444D01*
X220356281Y-97710339D01*
X220220134Y-97646020D01*
X220152591Y-97623784D01*
X220696007Y-97623784D01*
X220725700Y-97633266D01*
X220857487Y-97657769D01*
X221055203Y-97686742D01*
X221396749Y-97732049D01*
X221409359Y-97689961D01*
X221653329Y-97689961D01*
X221661615Y-97789208D01*
X221672195Y-97800444D01*
X221715431Y-97846362D01*
X221830881Y-97851068D01*
X221958040Y-97742649D01*
X222079646Y-97531733D01*
X222147771Y-97355348D01*
X222164965Y-97205639D01*
X222092194Y-97130747D01*
X221921508Y-97109437D01*
X221834505Y-97128977D01*
X221763679Y-97218781D01*
X221762033Y-97220868D01*
X221699525Y-97416674D01*
X221677985Y-97512579D01*
X221653329Y-97689961D01*
X221409359Y-97689961D01*
X221477308Y-97463166D01*
X221487776Y-97428044D01*
X221541528Y-97218781D01*
X221537106Y-97100355D01*
X221462043Y-97039750D01*
X221303868Y-97003955D01*
X221272522Y-96998593D01*
X221080145Y-96962809D01*
X220947248Y-96933638D01*
X220890808Y-96942131D01*
X220825298Y-97040766D01*
X220761493Y-97256153D01*
X220730599Y-97393467D01*
X220700403Y-97553961D01*
X220696007Y-97623784D01*
X220152591Y-97623784D01*
X220104419Y-97607925D01*
X219967634Y-97589097D01*
X219887953Y-97650408D01*
X219821609Y-97809850D01*
X219804089Y-97861058D01*
X219772545Y-97994554D01*
X219563366Y-97994554D01*
X219604829Y-97801219D01*
X219656560Y-97625094D01*
X219698061Y-97454418D01*
X219655162Y-97338029D01*
X219620984Y-97269669D01*
X220015036Y-97269669D01*
X220071189Y-97339649D01*
X220199837Y-97411460D01*
X220333805Y-97478812D01*
X220432417Y-97504626D01*
X220494516Y-97457178D01*
X220542580Y-97316925D01*
X220599084Y-97064324D01*
X220620553Y-96961238D01*
X220629885Y-96846712D01*
X221829318Y-96846712D01*
X221833116Y-96857006D01*
X221914048Y-96895291D01*
X222054383Y-96921547D01*
X222193045Y-96927624D01*
X222268960Y-96905373D01*
X222284902Y-96877581D01*
X222366315Y-96677321D01*
X222433234Y-96429387D01*
X222472564Y-96191117D01*
X222471209Y-96019845D01*
X222428164Y-95895977D01*
X222330476Y-95826079D01*
X222181580Y-95879044D01*
X222143342Y-95932006D01*
X222107087Y-96009334D01*
X222071552Y-96085128D01*
X221989075Y-96294858D01*
X221911091Y-96519497D01*
X221852779Y-96717348D01*
X221831580Y-96834241D01*
X221829318Y-96846712D01*
X220629885Y-96846712D01*
X220630901Y-96834241D01*
X220582613Y-96775494D01*
X220456957Y-96742591D01*
X220313040Y-96716019D01*
X220190083Y-96718354D01*
X220124290Y-96790164D01*
X220071296Y-96956000D01*
X220070472Y-96958966D01*
X220018941Y-97157461D01*
X220015036Y-97269669D01*
X219620984Y-97269669D01*
X219616823Y-97261347D01*
X219686837Y-97203837D01*
X219729807Y-97171142D01*
X219819323Y-97020894D01*
X219905684Y-96781908D01*
X219941065Y-96633670D01*
X220942204Y-96633670D01*
X220956138Y-96701045D01*
X221009241Y-96730920D01*
X221021664Y-96734391D01*
X221171442Y-96768813D01*
X221367183Y-96806698D01*
X221478432Y-96824527D01*
X221582392Y-96815806D01*
X221640500Y-96736536D01*
X221692229Y-96556309D01*
X221708452Y-96493987D01*
X221772103Y-96262798D01*
X221827389Y-96078908D01*
X221848368Y-96009334D01*
X221847587Y-95927545D01*
X221770531Y-95884069D01*
X221588139Y-95851254D01*
X221505498Y-95839238D01*
X221331530Y-95816738D01*
X221238974Y-95809009D01*
X221237939Y-95809149D01*
X221192490Y-95874016D01*
X221123265Y-96033944D01*
X221044820Y-96255462D01*
X221040692Y-96268203D01*
X220969652Y-96499241D01*
X220942204Y-96633670D01*
X219941065Y-96633670D01*
X219976658Y-96484546D01*
X219980242Y-96467825D01*
X220217778Y-96467825D01*
X220223675Y-96471280D01*
X220317730Y-96498053D01*
X220482876Y-96532627D01*
X220728684Y-96578536D01*
X220848230Y-96198467D01*
X220897697Y-96028233D01*
X220935048Y-95863591D01*
X220937514Y-95788135D01*
X220933441Y-95785086D01*
X220838808Y-95759583D01*
X220673759Y-95738869D01*
X220539347Y-95735234D01*
X220455606Y-95771798D01*
X220392436Y-95878288D01*
X220319378Y-96084399D01*
X220270029Y-96240495D01*
X220226766Y-96398938D01*
X220217778Y-96467825D01*
X219980242Y-96467825D01*
X220000021Y-96375533D01*
X220098652Y-96041024D01*
X220235845Y-95680836D01*
X220336860Y-95458124D01*
X220562347Y-95458124D01*
X220565837Y-95460898D01*
X220658569Y-95492379D01*
X220821342Y-95525348D01*
X220827503Y-95526336D01*
X220956792Y-95539602D01*
X221037748Y-95508376D01*
X221064756Y-95464108D01*
X221321469Y-95464108D01*
X221328228Y-95551106D01*
X221347688Y-95565074D01*
X221478276Y-95614298D01*
X221667622Y-95655919D01*
X221946711Y-95700506D01*
X221969111Y-95551128D01*
X222172899Y-95551128D01*
X222198265Y-95639176D01*
X222276756Y-95633029D01*
X222312078Y-95583313D01*
X222300959Y-95448933D01*
X222281975Y-95400995D01*
X222244097Y-95354820D01*
X222202215Y-95429765D01*
X222172899Y-95551128D01*
X221969111Y-95551128D01*
X221995745Y-95373519D01*
X222009779Y-95272676D01*
X222015763Y-95108003D01*
X221972448Y-94999058D01*
X221865280Y-94892133D01*
X221847242Y-94876853D01*
X221714353Y-94778111D01*
X221629691Y-94737733D01*
X221627391Y-94739687D01*
X221580433Y-94779584D01*
X221504695Y-94915119D01*
X221425653Y-95103076D01*
X221359261Y-95300419D01*
X221321469Y-95464108D01*
X221064756Y-95464108D01*
X221100984Y-95404726D01*
X221177113Y-95200718D01*
X221230379Y-95050051D01*
X221297355Y-94862504D01*
X221336760Y-94754667D01*
X221341504Y-94739687D01*
X221315241Y-94677275D01*
X221213916Y-94676007D01*
X221073720Y-94729164D01*
X220930843Y-94830027D01*
X220867220Y-94895821D01*
X220742061Y-95057529D01*
X220634325Y-95231066D01*
X220566818Y-95377556D01*
X220562347Y-95458124D01*
X220336860Y-95458124D01*
X220396685Y-95326224D01*
X220566258Y-95008441D01*
X220729649Y-94758743D01*
X220871944Y-94608383D01*
X220872815Y-94607764D01*
X221156182Y-94480141D01*
X221456480Y-94472346D01*
X221757254Y-94572971D01*
X222042048Y-94770607D01*
X222294407Y-95053844D01*
X222325238Y-95108003D01*
X222497877Y-95411273D01*
G37*
D13*
%TO.C,U5*%
X228390000Y-153000000D02*
X228390000Y-163250000D01*
X228390000Y-163250000D02*
X237610000Y-163250000D01*
X229190000Y-152200000D02*
X228390000Y-153000000D01*
X237610000Y-152200000D02*
X229190000Y-152200000D01*
X237610000Y-163250000D02*
X237610000Y-152200000D01*
%TD*%
M02*
