M48
; DRILL file {KiCad 9.0.2} date 2026-04-17T10:49:03-0600
; FORMAT={-:-/ absolute / metric / decimal}
; #@! TF.CreationDate,2026-04-17T10:49:03-06:00
; #@! TF.GenerationSoftware,Kicad,Pcbnew,9.0.2
; #@! TF.FileFunction,Plated,1,2,PTH
FMAT,2
METRIC
; #@! TA.AperFunction,Plated,PTH,ViaDrill
T1C0.300
; #@! TA.AperFunction,Plated,PTH,ComponentDrill
T2C0.500
; #@! TA.AperFunction,Plated,PTH,ComponentDrill
T3C0.800
; #@! TA.AperFunction,Plated,PTH,ComponentDrill
T4C0.889
; #@! TA.AperFunction,Plated,PTH,ComponentDrill
T5C1.600
; #@! TA.AperFunction,Plated,PTH,ComponentDrill
T6C3.000
; #@! TA.AperFunction,Plated,PTH,ComponentDrill
T7C3.300
%
G90
G05
T1
X152.25Y-156.5
X156.0Y-157.5
X165.897Y-147.762
X166.75Y-187.956
X168.606Y-114.18
X169.25Y-187.956
X173.0Y-124.5
X180.5Y-125.0
X183.75Y-181.5
X184.19Y-156.0
X184.19Y-162.95
X184.625Y-124.625
X185.25Y-127.75
X185.46Y-162.95
X185.75Y-123.75
X186.73Y-156.0
X186.73Y-162.95
X188.0Y-126.0
X188.0Y-156.0
X188.0Y-162.95
X188.5Y-132.75
X189.0Y-117.75
X189.27Y-156.0
X190.0Y-123.75
X190.0Y-123.75
X190.0Y-123.75
X190.0Y-123.75
X190.0Y-123.75
X190.5Y-132.75
X191.81Y-156.0
X195.5Y-125.5
X196.0Y-115.25
X196.0Y-116.25
X201.25Y-136.5
X204.75Y-137.0
X204.75Y-170.25
X207.25Y-157.75
X212.25Y-126.25
T2
X163.35Y-159.806
T3
X141.4Y-154.056
X145.75Y-105.5
X145.75Y-107.5
X154.1Y-154.056
X156.5Y-123.0
X156.5Y-125.0
X171.0Y-158.206
X171.3Y-148.5
X174.5Y-158.206
X184.0Y-148.5
T4
X141.71Y-193.5
X144.25Y-193.5
X146.79Y-193.5
X149.33Y-193.5
X153.75Y-193.5
X156.29Y-193.5
X158.83Y-193.5
X161.37Y-193.5
X164.25Y-193.5
X166.79Y-193.5
X169.33Y-193.5
X171.87Y-193.5
X173.698Y-114.254
X176.238Y-114.254
X176.75Y-193.5
X178.778Y-114.254
X179.29Y-193.5
X181.318Y-114.254
X181.83Y-193.5
X183.858Y-114.254
X185.0Y-193.5
X186.398Y-114.254
X187.54Y-193.5
X192.25Y-193.5
X194.79Y-193.5
X197.33Y-193.5
X199.87Y-193.5
X215.5Y-106.8
X215.5Y-109.34
X215.5Y-111.88
X215.5Y-114.42
X215.5Y-116.96
X215.5Y-119.5
X215.5Y-122.04
X215.5Y-126.3
X215.5Y-128.84
X215.5Y-131.38
X215.5Y-133.92
X215.5Y-136.46
X215.5Y-139.0
X215.5Y-141.54
X215.5Y-145.8
X215.5Y-148.34
X215.5Y-150.88
X215.5Y-153.42
X215.5Y-155.96
X215.5Y-158.5
X215.5Y-161.04
X215.5Y-165.38
X215.5Y-167.92
X215.5Y-170.46
X215.5Y-173.0
X215.5Y-175.54
X215.5Y-178.08
X215.5Y-180.62
T5
X127.5Y-102.41
X127.5Y-115.91
X127.5Y-120.41
X127.5Y-133.91
X127.5Y-138.06
X127.5Y-151.56
X127.5Y-155.91
X127.5Y-169.41
X127.5Y-173.81
X127.5Y-187.31
T6
X133.5Y-105.56
X133.5Y-112.76
X133.5Y-123.56
X133.5Y-130.76
X133.5Y-141.21
X133.5Y-148.41
X133.5Y-159.06
X133.5Y-166.26
X133.5Y-176.96
X133.5Y-184.16
T7
X129.0Y-95.0
X129.0Y-193.5
X214.0Y-193.5
X214.75Y-95.0
M30
